<?xml version="1.0" encoding="UTF-8"?>
<svg version="1.1" xmlns="http://www.w3.org/2000/svg" width="512" height="512">
<path d="M0 0 C0.6561731 0.19974426 1.31234619 0.39948853 1.98840332 0.60528564 C24.21921912 7.38225266 45.73261404 15.63088371 67 25 C67.80904785 25.35416992 68.6180957 25.70833984 69.45166016 26.07324219 C110.63541391 44.24653418 150.85790414 73.76381665 178.83984375 109.27734375 C180.81222294 111.7633262 182.85155269 114.17603237 184.92529297 116.57763672 C199.06161819 132.98293916 211.05325187 150.97825141 223 169 C223.66 169.99 224.32 170.98 225 172 C225.26069641 174.73370361 225.26069641 174.73370361 225.2746582 178.09082031 C225.28419022 179.35194641 225.29372223 180.61307251 225.30354309 181.91241455 C225.3032809 183.30098498 225.30234019 184.68955542 225.30078125 186.078125 C225.30467863 187.5241508 225.30901541 188.97017548 225.31376648 190.41619873 C225.32125009 193.46956037 225.32093174 196.52280665 225.31567383 199.57617188 C225.31112548 202.64207966 225.31763045 205.70758311 225.33618164 208.7734375 C225.75667528 278.88426306 210.47938425 343.85006512 173.25 403.6875 C172.64857178 404.65445801 172.04714355 405.62141602 171.42749023 406.61767578 C167.21949443 413.28584566 162.70517336 419.67472363 158 426 C157.47873535 426.70552002 156.9574707 427.41104004 156.42041016 428.13793945 C151.05258336 435.3851427 145.60639033 442.57406298 140.0625 449.6875 C139.40834106 450.53308472 139.40834106 450.53308472 138.7409668 451.39575195 C137.52005563 452.95132673 136.2606567 454.47645754 135 456 C134.33871094 456.85722656 133.67742187 457.71445312 132.99609375 458.59765625 C128.23936848 462.41171888 122.74954704 463.87931595 117 465.75 C115.6957952 466.18333117 114.39184447 466.61742766 113.08813477 467.05224609 C109.71751507 468.17102861 106.3402272 469.26824031 102.96124268 470.3614502 C99.93598464 471.34642669 96.92033566 472.36020213 93.90234375 473.3671875 C69.07430837 481.50141114 42.98807822 487.97165595 17 491 C16.18047852 491.10006348 15.36095703 491.20012695 14.51660156 491.30322266 C-12.30426456 494.46066611 -39.29618185 493.84648046 -66 490 C-67.1226123 489.83902832 -68.24522461 489.67805664 -69.40185547 489.51220703 C-99.99399802 484.94772081 -129.4366456 475.80829678 -158.44775391 465.2824707 C-160.62771108 464.49543874 -162.81609574 463.73076369 -165.01708984 463.00463867 C-171.1387995 460.86414495 -174.1914276 458.31365122 -177.75 452.9375 C-178.76253621 451.4996586 -179.77557893 450.06217379 -180.7890625 448.625 C-181.30887695 447.87089844 -181.82869141 447.11679687 -182.36425781 446.33984375 C-184.6129901 443.12314969 -186.96824827 439.99093074 -189.3215332 436.8503418 C-195.86261773 428.0990844 -202.11362725 419.20347061 -208 410 C-208.48791016 409.24058105 -208.97582031 408.48116211 -209.47851562 407.69873047 C-233.85653854 369.57581357 -251.57631117 329.58909962 -260 285 C-260.16580566 284.12311523 -260.33161133 283.24623047 -260.50244141 282.34277344 C-264.7097315 259.43089289 -265.35332868 236.47302584 -265.31567383 213.24487305 C-265.30979863 209.30457092 -265.32706314 205.36472668 -265.3500185 201.42450047 C-265.36476514 198.35232343 -265.36562794 195.28025784 -265.36250877 192.20805168 C-265.36301834 190.75408943 -265.3681867 189.30012034 -265.37832069 187.84619331 C-265.46349372 173.96531302 -265.46349372 173.96531302 -262 168 C-261.62770264 167.35256836 -261.25540527 166.70513672 -260.87182617 166.03808594 C-260.33779175 165.26899902 -260.33779175 165.26899902 -259.79296875 164.484375 C-259.17095581 163.58162842 -259.17095581 163.58162842 -258.53637695 162.66064453 C-258.09124756 162.03013184 -257.64611816 161.39961914 -257.1875 160.75 C-256.71465576 160.07179199 -256.24181152 159.39358398 -255.75463867 158.69482422 C-247.21621818 146.52464618 -238.4485471 134.48177876 -229 123 C-228.28585938 122.113125 -227.57171875 121.22625 -226.8359375 120.3125 C-222.48259681 114.92692389 -218.00853144 109.69324033 -213.3359375 104.58203125 C-211.44008397 102.48644734 -209.58807519 100.36566073 -207.7421875 98.2265625 C-203.90832724 93.83789595 -199.87205547 89.67987291 -195.75 85.5625 C-195.00274658 84.81605225 -194.25549316 84.06960449 -193.4855957 83.30053711 C-188.71274868 78.58021252 -183.87524964 74.16507892 -178.5859375 70.02734375 C-175.75368458 67.80689169 -173.04201687 65.47033554 -170.3125 63.125 C-133.75449638 32.71474795 -88.81773123 15.20307031 -44 1 C-42.93942383 0.66000977 -41.87884766 0.32001953 -40.78613281 -0.03027344 C-37.9262861 -0.93867364 -35.05986775 -1.81961842 -32.1875 -2.6875 C-31.37676025 -2.94378174 -30.56602051 -3.20006348 -29.73071289 -3.46411133 C-19.25295206 -6.51132246 -10.15473997 -3.11663402 0 0 Z " fill="#1D7CBD" transform="translate(276,12)"/>
<path d="M0 0 C2.72244559 1.0695322 3.97456114 1.96699071 5.78515625 4.31640625 C8.17604946 7.2133086 10.61627244 9.10137084 13.6875 11.25 C18.97757848 14.97757848 18.97757848 14.97757848 20 16 C20.66 14.02 21.32 12.04 22 10 C25.03225268 10.33691696 26.03598652 11.03604944 28.234375 13.23828125 C31.65165983 16.65073941 35.38228189 19.40532618 39.27148438 22.25 C43.83058238 25.66265816 48.12760232 29.11131566 49 35 C49.928125 34.505 49.928125 34.505 50.875 34 C56.58001843 32.1743941 61.37763445 31.94221052 67.01171875 34.21484375 C70.4361997 36.00500907 73.73441574 37.93913502 77 40 C77.67450195 40.42265137 78.34900391 40.84530273 79.04394531 41.28076172 C81.14435542 42.60863499 83.23146856 43.95447806 85.3125 45.3125 C85.97725342 45.74481934 86.64200684 46.17713867 87.3269043 46.62255859 C88.92281165 47.69352138 90.46728909 48.84039714 92 50 C92 50.66 92 51.32 92 52 C90.97519531 51.96519531 89.95039063 51.93039063 88.89453125 51.89453125 C87.53387064 51.86637965 86.1731922 51.83908096 84.8125 51.8125 C84.13896484 51.78736328 83.46542969 51.76222656 82.77148438 51.73632812 C78.29014775 51.67074759 75.44869958 52.0781 72 55 C69.28393072 59.64247707 68.13537315 64.06688508 67.1328125 69.2734375 C66.9731601 70.06497223 66.81350769 70.85650696 66.64901733 71.67202759 C66.13315447 74.23818454 65.62911579 76.80651216 65.125 79.375 C64.76718381 81.16424428 64.40845365 82.95330601 64.04882812 84.7421875 C63.34188319 88.26200889 62.63859669 91.78252593 61.93847656 95.30371094 C60.8280904 100.87672327 59.6716864 106.4395839 58.5 112 C56.98671063 119.2183903 55.4984823 126.44168311 54.0234375 133.66796875 C53.75923004 134.96107468 53.75923004 134.96107468 53.48968506 136.28030396 C52.60899599 140.59076935 51.72984825 144.90153744 50.85351562 149.21289062 C49.19906316 157.32667993 47.49201098 165.41460586 45.56884766 173.46972656 C43.94736046 180.68221296 45.67003556 185.21580731 48.7109375 191.7421875 C51.71199686 199.32668296 52.27950531 206.46285646 52.125 214.5625 C52.11597656 215.47580078 52.10695313 216.38910156 52.09765625 217.33007812 C52.07437253 219.55367319 52.0416771 221.77668677 52 224 C57.74314984 220.41251998 60.9001761 217.48872622 63 211 C63.8843449 202.83120586 62.96411992 195.07022476 61.45703125 187.046875 C60.24158773 178.94391822 59.45707773 170.11724489 64 163 C67.61802371 159.23369663 70.86192639 157.16121445 76.16015625 156.76171875 C96.71978913 156.3706947 114.14213601 163.35011178 133 171 C136.45421774 172.39697575 136.45421774 172.39697575 139.90942383 173.79150391 C141.65784293 174.49984355 143.40143949 175.22005644 145.14453125 175.94140625 C149.48420282 177.55023114 153.44691561 178.15183088 158.0625 178.1875 C158.89910156 178.20167969 159.73570312 178.21585938 160.59765625 178.23046875 C163.23402193 177.97754912 164.7863226 177.44057097 167 176 C172.55252114 166.67969666 169.84549826 156.16876585 167.5 146.1875 C164.89051696 134.32173748 164.45926451 123.10045859 165 111 C168.85400391 112.72216797 168.85400391 112.72216797 170.16796875 115.22265625 C170.50441406 116.15980469 170.84085937 117.09695312 171.1875 118.0625 C175.60841233 129.37841321 181.77611774 139.88339023 187.75 150.4375 C202.54680714 176.62133273 202.54680714 176.62133273 199.49609375 191.44921875 C198.35165566 195.30107039 196.94858959 198.09276954 194.4765625 201.25 C191.63878794 205.12623742 191.07819688 208.55641098 190.5625 213.25 C189.51032222 220.75760756 187.56440929 228.43559071 182 234 C181.89255956 235.64443557 181.81466596 237.29082756 181.75 238.9375 C181.13155487 246.37816794 178.39515687 252.5726273 173.3125 258.0625 C171.047161 260.94009278 170.65698322 261.84361115 170.0625 265.25 C168.61666267 273.07066558 164.5729572 278.93595695 158.4375 283.875 C153.77780355 287.71515185 152.1693443 291.66103347 150.08984375 297.234375 C147.12911543 304.74762107 141.14682699 308.70003838 134 312 C107.55125242 322.16535494 77.3965534 314.67999456 51.47265625 306.4296875 C50.38500977 306.09046265 50.38500977 306.09046265 49.27539062 305.74438477 C47.640589 305.20956608 46.02054706 304.6288243 44.41210938 304.01928711 C39.17168277 302.009484 39.17168277 302.009484 33.9609375 303.39453125 C33.10757813 304.19246094 32.25421875 304.99039062 31.375 305.8125 C23.268092 312.64486834 10.10727571 321.87863524 -1 321 C-12.65268044 317.76029873 -23.89053424 311.77455919 -32.26953125 302.96875 C-35.04956869 301.41243107 -36.97341004 302.23340852 -40 303 C-42.52058133 303.88108816 -45.00747817 304.79712565 -47.5 305.75 C-57.77121726 309.51736878 -68.29014652 311.84943564 -79 314 C-80.18722656 314.24878906 -81.37445313 314.49757813 -82.59765625 314.75390625 C-100.33439874 317.89684823 -121.07168778 318.84206015 -136.875 309.25 C-144.21596006 303.86572966 -149.03919085 298.0010477 -151 289 C-151 288.34 -151 287.68 -151 287 C-151.556875 286.7525 -152.11375 286.505 -152.6875 286.25 C-158.90940087 282.88681034 -162.7646984 278.21368219 -166 272 C-166.51429368 270.22358763 -166.97217682 268.42995772 -167.375 266.625 C-168.70475889 260.8868889 -171.51046576 257.06143006 -175.16015625 252.5078125 C-178.39041288 248.10478754 -179.16431729 244.64801046 -179.25 239.25 C-179.62224839 233.60423281 -181.15614788 230.71693699 -184.50390625 226.27734375 C-188.02414712 220.91885699 -188.95670697 214.41711751 -189.4375 208.125 C-189.79762665 203.98721829 -191.16208658 202.08831754 -194 199 C-198.92385814 190.97771405 -198.22891211 180.59837738 -196.26171875 171.63671875 C-192.00603909 159.7053405 -184.80550828 148.59456286 -178.49609375 137.65234375 C-173.69807504 129.29942482 -169.56917744 120.95793555 -166 112 C-164.68 112 -163.36 112 -162 112 C-161.14469428 123.95052152 -163.47928178 135.50348428 -165.51928711 147.23022461 C-165.67792236 148.14425049 -165.83655762 149.05827637 -166 150 C-166.18087158 151.02931641 -166.36174316 152.05863281 -166.5480957 153.11914062 C-167.09758406 156.62209179 -167.20707393 160.01752171 -167.25 163.5625 C-167.27578125 164.84253906 -167.3015625 166.12257812 -167.328125 167.44140625 C-166.97954273 171.221864 -166.30256138 173.02496158 -164 176 C-159.61963203 178.92024531 -156.14826187 178.62019217 -151 178 C-140.25948312 175.31487078 -129.90032646 170.71193365 -119.62695312 166.65478516 C-112.17967055 163.73751579 -104.68397696 161.21987233 -97 159 C-96.24976563 158.77538086 -95.49953125 158.55076172 -94.7265625 158.31933594 C-89.73247052 156.92465648 -85.01711824 156.66582159 -79.875 156.6875 C-79.10285156 156.67138672 -78.33070313 156.65527344 -77.53515625 156.63867188 C-71.90232962 156.6338739 -67.62934849 157.54552505 -63.35546875 161.53515625 C-59.33166108 166.79705859 -58.80720969 169.85204583 -58.8125 176.375 C-58.81185547 177.18775391 -58.81121094 178.00050781 -58.81054688 178.83789062 C-58.8596856 184.4799099 -59.47970714 189.78624226 -60.54296875 195.33203125 C-61.8038994 202.69284864 -61.76230488 210.3577549 -58 217 C-55.53777567 219.63220037 -52.89618097 221.8605409 -50 224 C-50.03480469 222.77925781 -50.06960937 221.55851563 -50.10546875 220.30078125 C-50.34274078 208.41417899 -50.46580672 196.43212799 -43.76953125 186.07421875 C-41.1976147 179.14179394 -43.78619381 170.8315579 -45.1875 163.875 C-45.41308594 162.72845947 -45.63867188 161.58191895 -45.87109375 160.40063477 C-47.48138088 152.31732886 -49.25880892 144.28020821 -51.1237793 136.25244141 C-54.44856034 121.86709247 -57.17968534 107.35446972 -59.92602539 92.84960938 C-62.36247103 80.0229922 -62.36247103 80.0229922 -65.0625 67.25 C-65.34222656 65.97640625 -65.62195313 64.7028125 -65.91015625 63.390625 C-67.31456893 59.02134112 -69.08637242 55.45602098 -72.796875 52.6328125 C-75.98641989 51.71666663 -78.94070516 51.81371676 -82.25 51.875 C-83.51328125 51.89304688 -84.7765625 51.91109375 -86.078125 51.9296875 C-87.04234375 51.95289063 -88.0065625 51.97609375 -89 52 C-87.67315546 48.88842431 -86.50705997 47.35146244 -83.62109375 45.59765625 C-82.61671265 44.97769775 -82.61671265 44.97769775 -81.59204102 44.34521484 C-80.88104248 43.92191895 -80.17004395 43.49862305 -79.4375 43.0625 C-78.71167725 42.62373535 -77.98585449 42.1849707 -77.23803711 41.73291016 C-75.803023 40.86866036 -74.36534311 40.00881868 -72.92480469 39.15380859 C-71.35153877 38.21072707 -69.80105162 37.22973545 -68.2578125 36.23828125 C-63.21725535 33.1081132 -58.926002 31.97268214 -53 33 C-51.3172923 33.62507362 -49.64587075 34.28352829 -48 35 C-47.66871094 34.40574219 -47.33742187 33.81148437 -46.99609375 33.19921875 C-42.76435587 26.37965118 -37.77472133 22.21141391 -31.24389648 17.7565918 C-27.80827569 15.40502823 -25.48414511 13.38032404 -23 10 C-22.01 10 -21.02 10 -20 10 C-19.01 12.97 -19.01 12.97 -18 16 C-15.93063277 14.46691095 -13.86983103 12.92410147 -11.8125 11.375 C-11.23435547 10.94832031 -10.65621094 10.52164063 -10.06054688 10.08203125 C-6.09606411 7.08067141 -3.05620068 3.92528976 0 0 Z " fill="#2A282A" transform="translate(255,83)"/>
<path d="M0 0 C3.21842181 3.01593832 5.58722951 5.52443888 7.25 9.625 C7.56453125 10.38039062 7.8790625 11.13578125 8.203125 11.9140625 C8.84477701 13.59368099 9.4314197 15.2942591 10 17 C10.66 17 11.32 17 12 17 C12.30292969 16.19175781 12.60585938 15.38351563 12.91796875 14.55078125 C13.33691406 13.48214844 13.75585938 12.41351563 14.1875 11.3125 C14.79658203 9.72888672 14.79658203 9.72888672 15.41796875 8.11328125 C17.15282824 4.69924912 19.17667884 2.55759681 22 0 C22.02578125 1.28132812 22.0515625 2.56265625 22.078125 3.8828125 C22.74290904 26.81230345 29.51458728 41.66908133 44.58984375 58.97265625 C51.33693081 66.83580283 57.25665625 74.84962812 60 85 C68.08183409 80.09702065 74.41643567 74.97440174 78 66 C78.39987631 62.71913082 78.37412972 59.48838772 78.3125 56.1875 C78.31572266 55.33607422 78.31894531 54.48464844 78.32226562 53.60742188 C78.27975384 48.53306008 77.66714899 43.9524222 76.46069336 39.02954102 C75.11206481 33.08828551 74.84812332 26.35886144 77.75 20.875 C79.98581257 18.01812838 80.7114643 17.1776513 84 16 C87.453125 15.8046875 87.453125 15.8046875 91.25 15.875 C92.51328125 15.89304688 93.7765625 15.91109375 95.078125 15.9296875 C96.04234375 15.95289063 97.0065625 15.97609375 98 16 C96.81664062 16.928125 96.81664062 16.928125 95.609375 17.875 C91.92066647 20.8789782 89.87365503 23.32246643 89 28 C88.29988067 38.52474474 89.19727047 47.59557562 92.32763672 57.72998047 C93.74434739 62.51305085 94.94261937 67.35748338 96.1875 72.1875 C96.70148276 74.16024491 97.21578526 76.13290655 97.73046875 78.10546875 C98.15533819 79.73653927 98.57869119 81.36800614 99 83 C99.18626953 83.66757324 99.37253906 84.33514648 99.56445312 85.02294922 C102.26198594 97.26769176 100.89240851 112.41657324 94.6796875 123.31640625 C85.74190935 136.18582999 72.56266351 141.82723169 57.76171875 145.140625 C49.59216966 146.82021665 49.59216966 146.82021665 43 151.5625 C34.06295337 159.94957453 21.75386269 167.37891432 9.625 169.625 C-2.48416938 167.53721218 -13.96845116 158.27594684 -22.3125 149.5625 C-26.11478252 146.18478997 -30.89930002 145.87124838 -35.7421875 145.10058594 C-50.05870712 142.78700473 -62.91092644 136.37642038 -71.56640625 124.44140625 C-74.0577819 120.1986003 -75.57033061 115.6887007 -77 111 C-77.33 110.01 -77.66 109.02 -78 108 C-79.29446204 87.2673866 -73.66459178 69.15282711 -67.69262695 49.48510742 C-65.37254622 41.16078534 -64.43295803 31.80491616 -67.93359375 23.6875 C-69.78011146 20.76553792 -72.22925067 19.03188284 -75 17 C-75 16.67 -75 16.34 -75 16 C-62.11287104 15.3116667 -62.11287104 15.3116667 -58.3125 17.75 C-55.40920261 20.57482989 -54.15004792 22.53482624 -53.734375 26.59375 C-53.76222 31.77292023 -54.02592436 36.65697596 -55 41.75 C-57.12892851 53.48996082 -57.66182726 64.7752746 -50.6796875 74.91796875 C-47.16200262 79.4256032 -42.97472171 82.2601152 -38 85 C-37.74347656 84.27296875 -37.48695313 83.5459375 -37.22265625 82.796875 C-33.19270525 72.21316531 -26.82201888 64.18469263 -19.43945312 55.78320312 C-7.11849521 41.73946458 -1.20984436 28.81320124 -0.4375 10.125 C-0.37272461 8.66320312 -0.37272461 8.66320312 -0.30664062 7.171875 C-0.20117726 4.78137198 -0.09905825 2.39077556 0 0 Z " fill="#FCFCFA" transform="translate(245,230)"/>
<path d="M0 0 C4.08374845 1.7057426 7.23573604 4.53097232 10.5625 7.375 C11.4277832 8.09816406 11.4277832 8.09816406 12.31054688 8.8359375 C18.54667494 14.12981322 18.54667494 14.12981322 20 17 C20.13965716 19.7961793 20.09599051 22.2913953 19.875 25.0625 C19.82150391 25.8767041 19.76800781 26.6909082 19.71289062 27.52978516 C19.09631407 36.11577254 18.11466107 44.6716547 17.10498047 53.21899414 C15.77566525 64.48456245 14.79526348 75.64849756 15 87 C15.99 87 16.98 87 18 87 C18.05597855 86.45638824 18.11195709 85.91277649 18.16963196 85.35269165 C23.42559644 34.33901629 23.42559644 34.33901629 26 13 C32.82467404 16.34380171 41.10669338 20.6978452 44 28 C44.26054631 39.6395076 41.09307126 51.66928592 39.0625 63.0625 C38.69808287 65.13077401 38.33414707 67.19913288 37.97070312 69.26757812 C37.29855454 73.0852365 36.62445253 76.90252957 35.94555664 80.71899414 C35.79273224 81.58033966 35.63990784 82.44168518 35.48245239 83.32913208 C35.14237657 85.2117999 34.79274486 87.09275391 34.43624878 88.97238159 C34.16121017 90.43129318 34.16121017 90.43129318 33.88061523 91.91967773 C33.71222641 92.79752426 33.54383759 93.67537079 33.37034607 94.57981873 C32.89915778 97.25093679 32.89915778 97.25093679 33 101 C34.98 101.495 34.98 101.495 37 102 C37.15557373 101.05608398 37.31114746 100.11216797 37.47143555 99.13964844 C38.89112098 90.53638219 40.32638512 81.93589338 41.77607727 73.33763123 C42.54754134 68.74747743 43.29789666 64.15491641 44.01914978 59.55661011 C44.51932961 56.38958348 45.0434558 53.22648125 45.5625 50.0625 C45.82196411 48.33435059 45.82196411 48.33435059 46.08666992 46.57128906 C47.12229752 40.41441075 47.91790722 36.81362878 53 33 C53.33 32.67 53.66 32.34 54 32 C60.88947238 31.18078399 66.25127267 32.07920901 72 36 C74.5 38.25 74.5 38.25 76 40 C75.0925 40.391875 74.185 40.78375 73.25 41.1875 C65.74808966 45.37125769 64.29727496 52.18065035 62 60 C61.04693022 64.06069255 60.29092489 68.14372964 59.5625 72.25 C59.13435506 74.56408802 58.70463543 76.87788517 58.2734375 79.19140625 C58.06041992 80.34141113 57.84740234 81.49141602 57.62792969 82.67626953 C56.71149885 87.52708189 55.70766807 92.35760202 54.6875 97.1875 C52.22697762 108.87347732 49.82625026 120.57128275 47.43490601 132.27157593 C44.99876107 144.1900835 42.51783842 156.09847738 40 168 C38.88387612 167.0461098 37.7681489 166.09175545 36.65258789 165.13720703 C36.03122452 164.60580109 35.40986115 164.07439514 34.76966858 163.52688599 C31.89903593 161.05007829 29.10733065 158.48706544 26.30859375 155.9296875 C23.98910218 153.8328701 23.98910218 153.8328701 20.75 152.421875 C18 150 18 150 17.50610352 147.78369141 C17.3697405 144.95854297 17.4293081 142.20016904 17.5625 139.375 C17.58119141 138.42753906 17.59988281 137.48007813 17.61914062 136.50390625 C17.73583366 131.89295441 18.07102058 127.41749635 18.71484375 122.8515625 C19.7583547 112.71100855 13.94996604 105.49579124 8.29492188 97.66210938 C4.89346471 92.79747904 3.07006437 88.85544542 2 83 C1.34 83 0.68 83 0 83 C-0.10054688 83.54785156 -0.20109375 84.09570312 -0.3046875 84.66015625 C-2.13954966 92.38919891 -6.12885365 98.08979916 -10.625 104.484375 C-14.50939739 110.1380251 -16.39897416 114.24821448 -16.25 121.25 C-16.23453125 122.47203125 -16.2190625 123.6940625 -16.203125 124.953125 C-16.20281459 127.91664305 -16.20281459 127.91664305 -15 130 C-14.04383075 136.47845184 -13.56244117 143.57824555 -15 150 C-17.44187414 152.92846332 -19.50623499 153.99223124 -22.95703125 155.5546875 C-28.12639715 158.0099704 -33.4047421 162.8094842 -36 168 C-36.66 168 -37.32 168 -38 168 C-38.68954206 164.58374251 -39.37644142 161.1669587 -40.0625 157.75 C-40.28292969 156.65260498 -40.50335938 155.55520996 -40.73046875 154.42456055 C-42.08508492 147.65380562 -43.41381137 140.87887842 -44.71484375 134.09765625 C-48.68250055 113.37343997 -48.68250055 113.37343997 -53.22436523 92.76904297 C-54.58765426 86.95046918 -55.7847754 81.11288383 -56.92138672 75.24584961 C-59.23759398 56.68753113 -59.23759398 56.68753113 -69 42 C-71.66533035 40.680982 -71.66533035 40.680982 -74 40 C-70.07206827 35.41741298 -65.43013321 32.57698228 -59.46875 31.57421875 C-55.01923567 31.3396811 -52.80393397 31.53220219 -48.8515625 33.83203125 C-44.6132947 37.66675107 -44.33285426 42.84418913 -43.5 48.25 C-43.30696289 49.36721436 -43.11392578 50.48442871 -42.91503906 51.63549805 C-42.49205702 54.08468433 -42.07877808 56.53556077 -41.67382812 58.98779297 C-40.95896454 63.29339123 -40.17905179 67.58625106 -39.390625 71.87890625 C-39.18578491 72.9942424 -39.18578491 72.9942424 -38.97680664 74.1321106 C-38.70283324 75.62296631 -38.42874548 77.11380102 -38.15454102 78.60461426 C-37.28696604 83.33962593 -36.43756565 88.07794819 -35.58496094 92.81567383 C-35.08269727 95.5498245 -34.55496255 98.27613358 -34 101 C-32.68 101.33 -31.36 101.66 -30 102 C-31.72795431 90.47755917 -33.57647508 78.99129911 -35.82421875 67.55859375 C-35.98237564 66.74876541 -36.14053253 65.93893707 -36.30348206 65.10456848 C-37.0911235 61.07783864 -37.89192905 57.05444082 -38.71313477 53.03442383 C-43.14830782 30.84381787 -43.14830782 30.84381787 -39.6262207 24.54199219 C-35.71593891 19.59202111 -30.36326348 16.21066113 -25 13 C-24.34 13.33 -23.68 13.66 -23 14 C-22.53843689 16.540802 -22.53843689 16.540802 -22.23803711 19.96923828 C-22.12129135 21.24791779 -22.00454559 22.52659729 -21.88426208 23.84402466 C-21.76514894 25.25277541 -21.64617979 26.66153834 -21.52734375 28.0703125 C-21.39895236 29.50950835 -21.26967288 30.94862522 -21.13954163 32.38766479 C-20.79800881 36.18847683 -20.4675166 39.99016841 -20.1395874 43.79217529 C-19.67733125 49.12829504 -19.20013513 54.46310252 -18.7247467 59.79806519 C-18.47163177 62.63915786 -18.2225541 65.48055849 -17.97679138 68.32229614 C-17.86319778 69.61988861 -17.74960419 70.91748108 -17.63256836 72.25439453 C-17.53423203 73.39055206 -17.43589569 74.52670959 -17.33457947 75.69729614 C-16.98492154 79.14884264 -16.51316508 82.56927456 -16 86 C-14.68 86.33 -13.36 86.66 -12 87 C-12.4859473 79.13803789 -13.1413125 71.31237819 -13.97265625 63.48046875 C-14.06050385 62.64532745 -14.14835144 61.81018616 -14.23886108 60.94973755 C-14.60262363 57.50032447 -14.96777315 54.05113802 -15.34594727 50.60327148 C-16.32610973 41.62511958 -17.19897085 32.64592181 -17.43359375 23.61328125 C-17.46816177 22.93057663 -17.5027298 22.24787201 -17.53834534 21.54447937 C-17.57303178 17.79837284 -16.96688559 15.52014134 -14.65161133 12.66577148 C-12.0014497 10.00145744 -9.34512367 7.87476057 -6.25 5.75 C-2.52770956 3.40190814 -2.52770956 3.40190814 0 0 Z " fill="#FCFCFA" transform="translate(255,91)"/>
<path d="M0 0 C4.51925954 5.39385581 7.62121912 11.32172329 10.9375 17.5 C11.54529297 18.60859375 12.15308594 19.7171875 12.77929688 20.859375 C19.5112603 33.35018092 25.27859395 44.88110653 22.55859375 59.34765625 C20.50058263 66.0653152 16.03291008 70.32205235 9.9921875 73.6640625 C1.13339885 77.76049552 -9.12216806 81 -19 81 C-18.67 81.99 -18.34 82.98 -18 84 C-11.21039736 84.37498393 -5.6585639 83.04140477 0.8125 81.0625 C1.75287109 80.78470703 2.69324219 80.50691406 3.66210938 80.22070312 C7.12552424 79.19331415 10.57267722 78.14244093 14 77 C14.64925733 84.46645928 12.12509522 90.45817463 8.3125 96.8125 C-0.43012183 105.08254768 -12.41836063 106.86454516 -24 108 C-24.495 109.485 -24.495 109.485 -25 111 C-14.5007605 111.41811131 -4.70563449 110.10622998 5 106 C4.68833241 113.01252085 3.62216469 117.58696722 -1.69140625 122.59375 C-11.99264172 131.08446529 -23.34368037 130.37224469 -36 130 C-36 131.65 -36 133.3 -36 135 C-25.86975045 134.57227835 -15.96687989 134.01291888 -6 132 C-9.10514647 140.05511524 -12.91613227 147.09822183 -20.91796875 151.16015625 C-30.64708521 155.08465914 -40.65537695 155.61929687 -51 156 C-51 156.99 -51 157.98 -51 159 C-37.46294458 159.20894534 -37.46294458 159.20894534 -24 158 C-26.47607037 165.13690872 -30.08463785 169.91324105 -36.84375 173.515625 C-62.33367699 184.71574443 -96.67513535 176.6463903 -121.63671875 167.3125 C-122.74660156 166.879375 -123.85648437 166.44625 -125 166 C-122.90163107 163.90163107 -121.90619971 163.4904836 -119.1484375 162.6328125 C-117.99408203 162.26349609 -117.99408203 162.26349609 -116.81640625 161.88671875 C-115.21238168 161.38626308 -113.60821912 160.88624945 -112.00390625 160.38671875 C-98.98589703 156.22009225 -87.46288068 149.52183133 -81 137 C-80.38125 135.83210938 -80.38125 135.83210938 -79.75 134.640625 C-70.40127851 112.69709818 -79.41041413 85.81595709 -86.25390625 64.43359375 C-88.61285769 56.73921288 -89.81878646 46.83966031 -86.3125 39.4375 C-82.02688537 34.92023052 -78.12136825 33.25086095 -72.03515625 32.76171875 C-66.81445872 32.79611869 -62.16271735 34.73024904 -57.3125 36.5 C-56.3131543 36.85586182 -55.31380859 37.21172363 -54.28417969 37.57836914 C-45.03246941 40.90790397 -35.89919331 44.52719284 -26.81152344 48.27905273 C-22.54516164 49.97697273 -18.72332203 50.25081611 -14.1875 50.3125 C-13.13852539 50.35600586 -13.13852539 50.35600586 -12.06835938 50.40039062 C-6.91814731 50.46302183 -4.10240545 49.34877838 0 46 C5.19753058 39.9818067 4.78443823 32.84742148 4.25390625 25.23632812 C3.73378889 20.65529447 2.63425065 16.20291488 1.42382812 11.76025391 C0.32626087 7.72444832 -0.20849801 4.18299142 0 0 Z " fill="#FCFCFA" transform="translate(426,216)"/>
<path d="M0 0 C1.1507761 3.42584495 0.82881394 5.72968452 0.00390625 9.21875 C-0.22490234 10.23453125 -0.45371094 11.2503125 -0.68945312 12.296875 C-1.18102901 14.40179526 -1.67572735 16.50598921 -2.17382812 18.609375 C-4.22377143 27.75085887 -6.24562464 37.87448237 -1.27734375 46.37890625 C1.4846707 49.88421511 4.84905776 51.61635259 9 53 C21.62415877 53.90172563 33.34734611 48.05771039 44.8125 43.4375 C47.03006829 42.5492642 49.24830807 41.66274902 51.46720886 40.77784729 C52.8360457 40.23139698 54.20403596 39.68281919 55.57099915 39.13169861 C70.29517085 33.22918884 70.29517085 33.22918884 78.21484375 35.6875 C82.98133606 37.81777589 85.95403704 40.05558952 88 45 C89.22603346 54.60392877 87.29278785 63.45667853 84.67236328 72.63964844 C83.6272155 76.30867122 82.6262298 79.98963671 81.62158203 83.66992188 C81.09250461 85.60231567 80.55852375 87.53337535 80.01904297 89.46289062 C75.44033979 105.96411929 74.05316378 125.00721411 82.35546875 140.53515625 C83.78094951 142.82433313 85.30514501 144.90416712 87 147 C87.69996094 147.90298828 87.69996094 147.90298828 88.4140625 148.82421875 C96.3602834 157.89106055 108.47431206 162.43914818 119.98413086 164.80932617 C121.66706702 165.15672609 123.33566585 165.57227036 125 166 C125.33 166.66 125.66 167.32 126 168 C102.28128462 175.85146827 102.28128462 175.85146827 90 178 C88.7164563 178.24943359 88.7164563 178.24943359 87.40698242 178.50390625 C71.08739861 181.51336272 50.39706848 183.36959283 35.6015625 174.57421875 C30.98337863 171.3481589 26.74336298 167.78761118 25.25 162.1875 C25.1675 161.465625 25.085 160.74375 25 160 C25.77601562 160.16371094 26.55203125 160.32742188 27.3515625 160.49609375 C32.0492078 161.144912 36.64013661 161.10640387 41.375 161.0625 C42.76525391 161.05573242 42.76525391 161.05573242 44.18359375 161.04882812 C46.45579709 161.03711574 48.72786388 161.02071372 51 161 C51 160.01 51 159.02 51 158 C49.81664062 157.96261719 48.63328125 157.92523438 47.4140625 157.88671875 C32.82843092 157.32347758 22.13250397 155.73835221 11.55078125 144.8046875 C9.46072982 142.37243621 8.09480577 140.01071587 7 137 C7.33 136.01 7.66 135.02 8 134 C8.92941406 134.32742188 9.85882813 134.65484375 10.81640625 134.9921875 C15.819317 136.42159057 20.7751602 136.21674356 25.9375 136.125 C26.90751953 136.11597656 27.87753906 136.10695313 28.87695312 136.09765625 C31.25156407 136.07426107 33.62564776 136.04148176 36 136 C36 135.01 36 134.02 36 133 C34.74445313 132.97421875 33.48890625 132.9484375 32.1953125 132.921875 C19.55420178 132.5443211 8.38554362 131.45042065 -1 122 C-4.00179642 117.68385769 -5.21950127 114.27717634 -5 109 C-3.3743193 109.30893932 -1.74947252 109.6222695 -0.125 109.9375 C0.77992187 110.11152344 1.68484375 110.28554688 2.6171875 110.46484375 C5 111 5 111 7 112 C12.98401164 113.02474618 18.94576468 113.09609897 25 113 C25 112.34 25 111.68 25 111 C24.18208984 110.81824219 24.18208984 110.81824219 23.34765625 110.6328125 C21.75211245 110.27824721 20.15710022 109.92128505 18.5625 109.5625 C16.9621701 109.21120807 15.35831078 108.8752271 13.75 108.5625 C4.83118227 106.77873645 -2.72907483 104.58556795 -8.52734375 97.2109375 C-12.47717401 91.2809536 -14.60887371 86.15426613 -14 79 C-13.34515625 79.25394531 -12.6903125 79.50789063 -12.015625 79.76953125 C-1.84753442 83.60410778 8.12914171 86.30253343 19 87 C19 85.68 19 84.36 19 83 C18.42668945 82.91024902 17.85337891 82.82049805 17.26269531 82.72802734 C-11.22777105 78.13961088 -11.22777105 78.13961088 -18.88671875 67.76953125 C-23.03321258 61.17878843 -23.81416114 55.61388098 -23 48 C-20.86337109 39.64213949 -17.27378001 32.11696183 -13.1875 24.5625 C-12.39617676 23.07351196 -12.39617676 23.07351196 -11.58886719 21.55444336 C-10.06824267 18.69802806 -8.53574099 15.84830908 -7 13 C-6.21955282 11.54193379 -5.43954406 10.08363275 -4.66015625 8.625 C-3.11767834 5.74402378 -1.56408264 2.86932062 0 0 Z " fill="#FCFCFA" transform="translate(86,214)"/>
<path d="M0 0 C8.59998604 3.62165187 16.81104468 5.74055833 26.0859375 6.8359375 C28.921875 7.23046875 28.921875 7.23046875 30.921875 8.23046875 C31.63623047 10.32836914 31.63623047 10.32836914 32.2890625 13.078125 C32.65837891 14.57569336 32.65837891 14.57569336 33.03515625 16.10351562 C33.5363693 18.20218462 34.03640184 20.30113597 34.53515625 22.40039062 C36.23775145 29.29457791 37.99264285 35.91067231 42.796875 41.35546875 C43.168125 41.97421875 43.539375 42.59296875 43.921875 43.23046875 C43.3193449 45.25071674 42.6556477 47.25410287 41.921875 49.23046875 C24.54265403 50.05261324 10.76703978 45.44144956 -5.15991211 38.76025391 C-25.99392595 30.10089627 -42.81589276 32.39051746 -63.60888672 40.38256836 C-70.8257658 42.86073932 -77.34860227 42.72110541 -84.640625 40.54296875 C-85.8678125 40.18332031 -87.095 39.82367188 -88.359375 39.453125 C-92.078125 38.23046875 -92.078125 38.23046875 -95.359375 36.8515625 C-108.68173195 31.28472049 -124.56817043 30.84351921 -138.04345703 36.37304688 C-138.71489746 36.65599609 -139.38633789 36.93894531 -140.078125 37.23046875 C-141.43139893 37.79411133 -141.43139893 37.79411133 -142.81201172 38.36914062 C-149.12754053 41.00222487 -149.12754053 41.00222487 -155.4152832 43.70068359 C-164.47418842 47.60050125 -172.27882696 49.58018983 -182.140625 49.35546875 C-183.29594727 49.34193359 -183.29594727 49.34193359 -184.47460938 49.328125 C-186.34258743 49.3049203 -188.21040162 49.26906694 -190.078125 49.23046875 C-190.72063979 46.3638643 -191.21138659 44.1273453 -191.078125 41.23046875 C-188.80859375 38.21484375 -188.80859375 38.21484375 -187.39599609 36.76757812 C-185.08006108 34.06636901 -184.33598861 30.85509362 -183.390625 27.48046875 C-183.18276367 26.78107178 -182.97490234 26.0816748 -182.76074219 25.36108398 C-181.37837045 20.60767498 -180.25312906 15.83874306 -179.4375 10.953125 C-179.078125 9.23046875 -179.078125 9.23046875 -178.078125 8.23046875 C-176.34018607 8.0534762 -174.60152843 7.88191223 -172.8605957 7.73730469 C-158.30546021 6.46315008 -145.20790493 1.44366606 -131.99609375 -4.5703125 C-119.02607699 -9.90069422 -102.11325049 -6.79254011 -89.078125 -2.76953125 C-86.01399576 -1.3105879 -83.20635317 0.31025827 -80.3203125 2.0859375 C-77.27990691 3.63792154 -75.28054853 3.65751722 -71.99609375 2.91015625 C-69.24757844 1.93614064 -66.66711335 0.67276054 -64.0390625 -0.5859375 C-59.9124571 -2.23549085 -55.68733389 -3.3384581 -51.390625 -4.45703125 C-50.16025513 -4.77849121 -50.16025513 -4.77849121 -48.9050293 -5.10644531 C-30.97011011 -9.67998647 -16.90319766 -7.2665863 0 0 Z " fill="#2D2D30" transform="translate(332.078125,404.76953125)"/>
<path d="M0 0 C0.6561731 0.19974426 1.31234619 0.39948853 1.98840332 0.60528564 C24.21921912 7.38225266 45.73261404 15.63088371 67 25 C67.80904785 25.35416992 68.6180957 25.70833984 69.45166016 26.07324219 C110.63541391 44.24653418 150.85790414 73.76381665 178.83984375 109.27734375 C180.81222294 111.7633262 182.85155269 114.17603237 184.92529297 116.57763672 C199.06161819 132.98293916 211.05325187 150.97825141 223 169 C223.66 169.99 224.32 170.98 225 172 C225.26069641 174.73370361 225.26069641 174.73370361 225.2746582 178.09082031 C225.28419022 179.35194641 225.29372223 180.61307251 225.30354309 181.91241455 C225.3032809 183.30098498 225.30234019 184.68955542 225.30078125 186.078125 C225.30467863 187.5241508 225.30901541 188.97017548 225.31376648 190.41619873 C225.32125009 193.46956037 225.32093174 196.52280665 225.31567383 199.57617188 C225.31112548 202.64207966 225.31763045 205.70758311 225.33618164 208.7734375 C225.75667528 278.88426306 210.47938425 343.85006512 173.25 403.6875 C172.64857178 404.65445801 172.04714355 405.62141602 171.42749023 406.61767578 C167.21949443 413.28584566 162.70517336 419.67472363 158 426 C157.47873535 426.70552002 156.9574707 427.41104004 156.42041016 428.13793945 C151.05258336 435.3851427 145.60639033 442.57406298 140.0625 449.6875 C139.40834106 450.53308472 139.40834106 450.53308472 138.7409668 451.39575195 C137.52005563 452.95132673 136.2606567 454.47645754 135 456 C134.33871094 456.85722656 133.67742187 457.71445312 132.99609375 458.59765625 C128.23936848 462.41171888 122.74954704 463.87931595 117 465.75 C115.6957952 466.18333117 114.39184447 466.61742766 113.08813477 467.05224609 C109.71751507 468.17102861 106.3402272 469.26824031 102.96124268 470.3614502 C99.93598464 471.34642669 96.92033566 472.36020213 93.90234375 473.3671875 C69.07430837 481.50141114 42.98807822 487.97165595 17 491 C16.18047852 491.10006348 15.36095703 491.20012695 14.51660156 491.30322266 C-12.30426456 494.46066611 -39.29618185 493.84648046 -66 490 C-67.1226123 489.83902832 -68.24522461 489.67805664 -69.40185547 489.51220703 C-99.99399802 484.94772081 -129.4366456 475.80829678 -158.44775391 465.2824707 C-160.62771108 464.49543874 -162.81609574 463.73076369 -165.01708984 463.00463867 C-171.1387995 460.86414495 -174.1914276 458.31365122 -177.75 452.9375 C-178.76253621 451.4996586 -179.77557893 450.06217379 -180.7890625 448.625 C-181.30887695 447.87089844 -181.82869141 447.11679687 -182.36425781 446.33984375 C-184.6129901 443.12314969 -186.96824827 439.99093074 -189.3215332 436.8503418 C-195.86261773 428.0990844 -202.11362725 419.20347061 -208 410 C-208.48791016 409.24058105 -208.97582031 408.48116211 -209.47851562 407.69873047 C-233.85653854 369.57581357 -251.57631117 329.58909962 -260 285 C-260.16580566 284.12311523 -260.33161133 283.24623047 -260.50244141 282.34277344 C-264.7097315 259.43089289 -265.35332868 236.47302584 -265.31567383 213.24487305 C-265.30979863 209.30457092 -265.32706314 205.36472668 -265.3500185 201.42450047 C-265.36476514 198.35232343 -265.36562794 195.28025784 -265.36250877 192.20805168 C-265.36301834 190.75408943 -265.3681867 189.30012034 -265.37832069 187.84619331 C-265.46349372 173.96531302 -265.46349372 173.96531302 -262 168 C-261.62770264 167.35256836 -261.25540527 166.70513672 -260.87182617 166.03808594 C-260.33779175 165.26899902 -260.33779175 165.26899902 -259.79296875 164.484375 C-259.17095581 163.58162842 -259.17095581 163.58162842 -258.53637695 162.66064453 C-258.09124756 162.03013184 -257.64611816 161.39961914 -257.1875 160.75 C-256.71465576 160.07179199 -256.24181152 159.39358398 -255.75463867 158.69482422 C-247.21621818 146.52464618 -238.4485471 134.48177876 -229 123 C-228.28585938 122.113125 -227.57171875 121.22625 -226.8359375 120.3125 C-222.48259681 114.92692389 -218.00853144 109.69324033 -213.3359375 104.58203125 C-211.44008397 102.48644734 -209.58807519 100.36566073 -207.7421875 98.2265625 C-203.90832724 93.83789595 -199.87205547 89.67987291 -195.75 85.5625 C-195.00274658 84.81605225 -194.25549316 84.06960449 -193.4855957 83.30053711 C-188.71274868 78.58021252 -183.87524964 74.16507892 -178.5859375 70.02734375 C-175.75368458 67.80689169 -173.04201687 65.47033554 -170.3125 63.125 C-133.75449638 32.71474795 -88.81773123 15.20307031 -44 1 C-42.93942383 0.66000977 -41.87884766 0.32001953 -40.78613281 -0.03027344 C-37.9262861 -0.93867364 -35.05986775 -1.81961842 -32.1875 -2.6875 C-31.37676025 -2.94378174 -30.56602051 -3.20006348 -29.73071289 -3.46411133 C-19.25295206 -6.51132246 -10.15473997 -3.11663402 0 0 Z M-31.75 2.6875 C-33.47473314 3.2503163 -35.20000409 3.81148691 -36.92578125 4.37109375 C-37.7863916 4.65065918 -38.64700195 4.93022461 -39.53369141 5.21826172 C-42.33465714 6.10607525 -45.15177049 6.91157243 -47.98168945 7.70092773 C-69.7487261 13.81178348 -90.71796971 22.05271854 -111 32 C-111.95181152 32.46100098 -112.90362305 32.92200195 -113.88427734 33.39697266 C-137.70473146 45.01818521 -160.02902696 59.72862854 -179.5234375 77.734375 C-181.58592874 79.62119664 -183.67788158 81.45440818 -185.79296875 83.28125 C-189.99803789 86.95259128 -193.99320322 90.80137411 -197.9375 94.75 C-198.63552734 95.44810791 -199.33355469 96.14621582 -200.05273438 96.86547852 C-204.7033912 101.56750887 -208.99054714 106.38035791 -213.078125 111.58203125 C-214.88694324 113.85775989 -216.78032399 115.98847127 -218.75 118.125 C-227.43631229 127.80894815 -234.99988903 138.5389483 -242.625 149.0625 C-243.34079224 150.04947876 -243.34079224 150.04947876 -244.07104492 151.05639648 C-245.10117272 152.48877608 -246.10417584 153.94086812 -247.08642578 155.40649414 C-248.59751841 157.45450855 -250.03726874 159.0726876 -251.81591797 160.85717773 C-263.72502445 173.8174557 -261.36079387 191.05434379 -260.93017578 207.48144531 C-260.85721798 210.72903594 -260.83556494 213.97600745 -260.81595421 217.2242918 C-260.69988575 235.66367346 -259.7170424 253.73662662 -257 272 C-256.75351195 273.76379506 -256.50843362 275.5277878 -256.26489258 277.29199219 C-252.27292363 306.20774747 -242.79252175 334.82478464 -230 361 C-229.21202018 362.6535413 -228.424264 364.30718918 -227.63671875 365.9609375 C-219.71593122 382.37851198 -210.4024396 398.03204524 -200 413 C-199.56751953 413.62406738 -199.13503906 414.24813477 -198.68945312 414.89111328 C-192.22120475 424.20530222 -185.61882172 433.41419068 -178.703125 442.40234375 C-177.05942414 444.54691241 -175.60308263 446.63862987 -174.171875 448.94140625 C-168.1047844 458.22632294 -158.03810887 460.64533467 -148 464 C-146.79601562 464.40782715 -145.59203125 464.8156543 -144.3515625 465.23583984 C-89.89394072 483.61567118 -34.35759621 493.66950315 23 485 C24.67817307 484.76799011 26.35655009 484.53744916 28.03515625 484.30859375 C59.52581005 479.85410114 89.36369433 469.32072905 119.37915039 459.2175293 C121.66859794 458.44769079 123.97241994 457.71835442 126.29248047 457.04638672 C129.1714943 455.93372186 130.18986911 455.14172455 131.97265625 452.68359375 C132.47249023 452.01142822 132.97232422 451.3392627 133.48730469 450.64672852 C134.00711914 449.91768311 134.52693359 449.1886377 135.0625 448.4375 C136.2141489 446.87188447 137.36651142 445.30679366 138.51953125 443.7421875 C139.10041504 442.94522461 139.68129883 442.14826172 140.27978516 441.32714844 C141.86139769 439.18750458 143.48229308 437.09139567 145.13671875 435.0078125 C174.02268366 398.54110082 197.22988505 356.1374244 209 311 C209.2057666 310.22188965 209.4115332 309.4437793 209.62353516 308.64208984 C214.5621996 289.72734099 217.81324146 270.66558718 219.04296875 251.1484375 C219.16603897 249.21151283 219.16603897 249.21151283 219.29159546 247.23545837 C220.11181073 234.00193058 220.78473777 220.76903653 221.02978516 207.51098633 C221.09358712 204.86516779 221.18963223 202.21994221 221.31689453 199.57641602 C222.25771452 179.55021499 219.02492382 167.62125588 205.91111755 152.27513123 C203.27889405 149.14154382 200.98577947 145.81820216 198.6875 142.4375 C181.66011409 118.52318041 161.67440879 94.75827601 139 76 C138.01644531 75.16597656 137.03289062 74.33195312 136.01953125 73.47265625 C119.48752488 59.68807574 101.16869039 47.77662372 82 38 C80.54980469 37.2565332 80.54980469 37.2565332 79.0703125 36.49804688 C54.29612159 23.91214619 28.45850454 14.38939392 2 6 C1.04577148 5.69658691 0.09154297 5.39317383 -0.89160156 5.08056641 C-3.65344981 4.20872572 -6.41906495 3.35067061 -9.1875 2.5 C-10.00742432 2.24436279 -10.82734863 1.98872559 -11.67211914 1.7253418 C-19.3709088 -0.58958776 -24.20980774 0.16726237 -31.75 2.6875 Z " fill="#262427" transform="translate(276,12)"/>
<path d="M0 0 C1.90625 0.59765625 1.90625 0.59765625 4 2 C4.90625 4.87109375 4.90625 4.87109375 5.5 8.4375 C7.98877053 21.38174036 13.35845821 31.63901212 20.08203125 42.79541016 C27.21433308 54.65772489 32.78996254 65.73399858 31 80 C30.03559573 83.56731173 28.70945517 86.72999691 27 90 C26.443125 91.0725 25.88625 92.145 25.3125 93.25 C21.10466146 98.2539161 15.64387206 102.31688214 9 103 C8.2575 102.525625 7.515 102.05125 6.75 101.5625 C2.87875198 99.36292726 -0.63385444 99.34919717 -5 100 C-6.35622245 100.96873032 -7.69417053 101.96434215 -9 103 C-14.40222723 103.25126638 -17.8886912 100.30979779 -21.8828125 97.03515625 C-24.97709739 94.06076063 -27.12331316 90.84381642 -29 87 C-29.36480469 86.26265625 -29.72960937 85.5253125 -30.10546875 84.765625 C-32.86093815 76.24653182 -31.92499307 65.02619329 -28.47265625 56.859375 C-26.24283611 52.52985685 -23.76974743 48.34410843 -21.29931641 44.14819336 C-17.60143123 37.69424983 -15.61879816 31.24497076 -14 24 C-12.35 23.67 -10.7 23.34 -9 23 C-8.67386719 21.91460937 -8.34773438 20.82921875 -8.01171875 19.7109375 C-7.57059094 18.26553999 -7.12916904 16.82023222 -6.6875 15.375 C-6.47416016 14.66214844 -6.26082031 13.94929688 -6.04101562 13.21484375 C-2.85792632 2.85792632 -2.85792632 2.85792632 0 0 Z " fill="#F2A01F" transform="translate(256,250)"/>
<path d="M0 0 C7.27014112 3.63960957 7.27014112 3.63960957 15.05566406 3.30981445 C16.48715002 2.58850149 17.90247899 1.83474419 19.30566406 1.05981445 C21.50464219 0.18184407 23.71385817 -0.67075499 25.93066406 -1.50268555 C27.04183594 -1.93194336 28.15300781 -2.36120117 29.29785156 -2.8034668 C46.43069373 -9.27834611 66.4233323 -9.56881746 83.17480469 -2.22119141 C84.78892513 -1.48965218 86.39924693 -0.74966473 88.00537109 -0.00073242 C91.4938163 1.60761039 95.03513524 3.05186022 98.61816406 4.43481445 C99.25850586 4.68585938 99.89884766 4.9369043 100.55859375 5.19555664 C105.1807298 6.90440347 109.53775065 7.53476493 114.43066406 7.93481445 C120.66101405 8.56048385 120.66101405 8.56048385 123.61035156 10.8449707 C125.23037526 12.9017289 126.44411904 14.58776767 127.30566406 17.05981445 C126.97566406 18.04981445 126.64566406 19.03981445 126.30566406 20.05981445 C109.32792399 21.52904196 93.27756189 13.53102918 78.02783203 7.14135742 C60.74956003 0.27653725 45.01626394 2.39831345 28.34472656 9.2824707 C13.93319985 15.17809527 3.01161936 11.39530348 -10.78808594 5.9074707 C-29.48144235 -1.39305941 -47.28052169 4.89639527 -64.6652832 12.35180664 C-75.93516641 17.12617908 -87.25163341 21.13658679 -99.69433594 20.05981445 C-99.15409868 15.60285709 -98.18971089 11.06880468 -94.69433594 8.05981445 C-91.5959592 7.51386554 -88.59664207 7.48836931 -85.45214844 7.4074707 C-74.37192128 6.38237692 -63.60800638 0.25549536 -53.70605469 -4.5222168 C-37.77018873 -12.02509532 -15.34579646 -6.85920643 0 0 Z " fill="#F9F9F7" transform="translate(244.6943359375,430.940185546875)"/>
<path d="M0 0 C3.40962935 1.37238847 6.82683137 2.72424681 10.25 4.0625 C11.14831543 4.41441406 12.04663086 4.76632812 12.97216797 5.12890625 C20.87599026 8.13500614 28.62629627 9.86297658 37 11 C37.83732743 14.12394391 38.66917982 17.24931974 39.5 20.375 C39.85771484 21.70917969 39.85771484 21.70917969 40.22265625 23.0703125 C40.44824219 23.92109375 40.67382812 24.771875 40.90625 25.6484375 C41.11572266 26.43395996 41.32519531 27.21948242 41.54101562 28.02880859 C42 30 42 30 42 32 C29.48739767 33.32486378 17.83954722 27.60472494 6.71826172 22.49975586 C4.82374301 21.63575027 2.91936318 20.80729404 1 20 C0.32598145 19.71608398 -0.34803711 19.43216797 -1.04248047 19.13964844 C-7.45761129 16.70697284 -13.56054406 16.46171371 -20.375 16.5 C-21.51316162 16.50354492 -22.65132324 16.50708984 -23.82397461 16.51074219 C-37.4985412 16.77576433 -49.71808103 20.0783605 -62 26 C-62.99 26 -63.98 26 -65 26 C-65 19.73 -65 13.46 -65 7 C-44.22372079 -1.76499279 -21.84346416 -8.95061358 0 0 Z " fill="#FBFBF9" transform="translate(323,405)"/>
<path d="M0 0 C0 6.27 0 12.54 0 19 C-3.51097941 18.29780412 -6.47445123 17.57345363 -9.80078125 16.40625 C-10.69603516 16.09816406 -11.59128906 15.79007812 -12.51367188 15.47265625 C-14.36910489 14.8278512 -16.22329313 14.17945231 -18.07617188 13.52734375 C-32.87063567 8.45798626 -52.53635202 6.74117799 -66.9453125 13.4296875 C-67.95335937 13.94789063 -68.96140625 14.46609375 -70 15 C-71.95688533 15.93102465 -73.92102662 16.84529901 -75.88671875 17.75756836 C-77.16794063 18.35680389 -78.44445681 18.96625878 -79.71484375 19.58813477 C-85.51305452 22.39724045 -90.95133532 24.30270314 -97.4375 24.125 C-98.30246094 24.10695313 -99.16742188 24.08890625 -100.05859375 24.0703125 C-101.01958984 24.03550781 -101.01958984 24.03550781 -102 24 C-101.35737498 21.04093596 -100.7110539 18.08276484 -100.0625 15.125 C-99.88009766 14.28324219 -99.69769531 13.44148438 -99.50976562 12.57421875 C-99.33251953 11.76855469 -99.15527344 10.96289062 -98.97265625 10.1328125 C-98.81031494 9.38918457 -98.64797363 8.64555664 -98.48071289 7.87939453 C-98 6 -98 6 -97 4 C-94.48918949 3.67091319 -92.02190152 3.4407019 -89.5 3.25 C-76.90211633 2.03573002 -65.52806256 -2.52406384 -54.19921875 -8.01953125 C-37.65741355 -15.39429698 -14.59501738 -8.34000993 0 0 Z " fill="#FBFBF9" transform="translate(254,412)"/>
<path d="M0 0 C1.90625 0.59765625 1.90625 0.59765625 4 2 C4.90625 4.87109375 4.90625 4.87109375 5.5 8.4375 C7.98877053 21.38174036 13.35845821 31.63901212 20.08203125 42.79541016 C27.21433308 54.65772489 32.78996254 65.73399858 31 80 C30.03559573 83.56731173 28.70945517 86.72999691 27 90 C26.443125 91.0725 25.88625 92.145 25.3125 93.25 C21.10466146 98.2539161 15.64387206 102.31688214 9 103 C8.2575 102.525625 7.515 102.05125 6.75 101.5625 C2.87875198 99.36292726 -0.63385444 99.34919717 -5 100 C-6.35622245 100.96873032 -7.69417053 101.96434215 -9 103 C-14.40222723 103.25126638 -17.8886912 100.30979779 -21.8828125 97.03515625 C-24.97709739 94.06076063 -27.12331316 90.84381642 -29 87 C-29.36480469 86.26265625 -29.72960937 85.5253125 -30.10546875 84.765625 C-32.86093815 76.24653182 -31.92499307 65.02619329 -28.47265625 56.859375 C-26.24283611 52.52985685 -23.76974743 48.34410843 -21.29931641 44.14819336 C-17.60143123 37.69424983 -15.61879816 31.24497076 -14 24 C-12.35 23.67 -10.7 23.34 -9 23 C-8.67386719 21.91460937 -8.34773438 20.82921875 -8.01171875 19.7109375 C-7.57059094 18.26553999 -7.12916904 16.82023222 -6.6875 15.375 C-6.47416016 14.66214844 -6.26082031 13.94929688 -6.04101562 13.21484375 C-2.85792632 2.85792632 -2.85792632 2.85792632 0 0 Z M0 7 C-0.84898026 9.32863157 -1.67907689 11.6614785 -2.5 14 C-2.85771484 14.97259766 -2.85771484 14.97259766 -3.22265625 15.96484375 C-6.4565542 25.29694927 -4.7735923 31.44761457 -1 40.25 C4.60844328 54.25835899 3.73028624 63.16545179 -2 77 C-1.7834375 75.78376953 -1.7834375 75.78376953 -1.5625 74.54296875 C1.46006301 56.51254081 -1.70494698 44.06715704 -10 28 C-11.97452963 30.96179445 -12.94660372 33.47096368 -14.125 36.8125 C-16.04534224 41.94484326 -18.32152499 46.51076479 -21.125 51.1875 C-26.42085037 60.13971722 -29.33682671 68.48563261 -28 79 C-25.92849096 87.00515358 -21.9263727 93.00847794 -15.375 98 C-13.10960773 99.17282889 -13.10960773 99.17282889 -10.9375 98.8125 C-8.98464647 98.04976889 -8.98464647 98.04976889 -7.25 96.9375 C-2.03437179 94.76432158 2.60201236 95.7255581 7.625 97.75 C11.35549746 99.09587874 11.35549746 99.09587874 15.1875 97.625 C21.7491188 91.50082246 26.43101543 86.16399948 27.28125 76.953125 C27.73564698 60.8220323 20.02833156 48.94819172 11.9296875 35.55859375 C6.41461907 26.40262517 3.06084366 17.47595527 1 7 C0.67 7 0.34 7 0 7 Z " fill="#332D29" transform="translate(256,250)"/>
<path d="M0 0 C0.94746094 0.00128906 1.89492188 0.00257813 2.87109375 0.00390625 C5.95200991 0.50025123 7.33413625 1.28020025 9.5625 3.4375 C10.59950136 6.54850409 10.73133434 8.98673723 10.875 12.25 C11.24250788 17.43343144 11.24250788 17.43343144 13.6875 21.875 C15.5625 24.4375 15.5625 24.4375 15.3828125 26.83984375 C13.6943266 32.18671576 9.28045014 36.05475964 5 39.5 C1.55427974 40.82527702 0.07120816 40.67586758 -3.4375 39.4375 C-7.66457818 36.35960848 -11.62772196 32.88412694 -14.4375 28.4375 C-14.30296675 24.73783559 -13.94558042 22.23553208 -11.9453125 19.09375 C-9.78337652 15.28515811 -9.58247743 11.57257401 -9.0625 7.27734375 C-7.80774943 1.57607084 -5.81270956 -0.11830481 0 0 Z " fill="#F7F6F5" transform="translate(255.4375,353.5625)"/>
<path d="M0 0 C2.94251162 3.58391303 5.61221243 7.26931617 8.1875 11.125 C8.88230469 12.15882813 9.57710938 13.19265625 10.29296875 14.2578125 C13.47944855 19.37659698 13.60714743 24.12210896 13 30 C10.90792979 36.98245089 5.64749841 43.52762092 1 49 C0.34 49 -0.32 49 -1 49 C-2.33203125 47.3125 -2.33203125 47.3125 -3.8125 45 C-4.3384375 44.18273437 -4.864375 43.36546875 -5.40625 42.5234375 C-5.9321875 41.69070312 -6.458125 40.85796875 -7 40 C-7.4846875 39.24976563 -7.969375 38.49953125 -8.46875 37.7265625 C-12.15588108 31.96006098 -14.2569387 27.02649342 -13 20 C-9.70128012 12.73518916 -4.98163782 6.20423758 0 0 Z " fill="#FAFAF8" transform="translate(256,186)"/>
<path d="M0 0 C6.57644379 0.86923431 12.67793449 3.95437086 17.625 8.3125 C19.51573596 12.00802937 19.7984795 15.00065919 19 19 C16.73149694 25.33250217 13.93114345 30.64274899 8 34 C0.31285327 35.59871336 -5.4776959 32.88562797 -12 29 C-9.95022906 22.51591085 -7.53890107 16.25480069 -4.875 10 C-4.51535156 9.14277344 -4.15570313 8.28554687 -3.78515625 7.40234375 C-1.13188959 1.13188959 -1.13188959 1.13188959 0 0 Z " fill="#232327" transform="translate(342,59)"/>
<path d="M0 0 C0.48919922 1.77503906 0.48919922 1.77503906 0.98828125 3.5859375 C1.42966933 5.18229669 1.87107685 6.77865051 2.3125 8.375 C2.5388916 9.19758301 2.7652832 10.02016602 2.99853516 10.86767578 C4.41159184 15.97502462 5.90861373 21.0368761 7.6171875 26.0546875 C8.06598041 28.33528822 7.71657871 29.81099929 7 32 C4.7355957 32.69897461 4.7355957 32.69897461 2 33 C0.05541992 31.73657227 0.05541992 31.73657227 -1.76953125 29.81640625 C-2.43017578 29.13642578 -3.09082031 28.45644531 -3.77148438 27.75585938 C-4.44501953 27.03205078 -5.11855469 26.30824219 -5.8125 25.5625 C-6.50537109 24.84255859 -7.19824219 24.12261719 -7.91210938 23.38085938 C-9.62228291 21.59992004 -11.31695799 19.80653898 -13 18 C-11.22298715 24.14663032 -9.26545459 30.01674561 -6.671875 35.87109375 C-6 38 -6 38 -7 41 C-9.5625 42.1875 -9.5625 42.1875 -12 43 C-12 42.34 -12 41.68 -12 41 C-12.59312988 40.72526855 -13.18625977 40.45053711 -13.79736328 40.16748047 C-15.90414198 39.05080836 -17.46376668 37.89442955 -19.2421875 36.3203125 C-19.83386719 35.80339844 -20.42554688 35.28648438 -21.03515625 34.75390625 C-21.64230469 34.21636719 -22.24945313 33.67882812 -22.875 33.125 C-27.08441262 29.40442239 -31.24824028 26.00799468 -36 23 C-35.01 21.68 -34.02 20.36 -33 19 C-27.59132214 19.31576085 -24.86488188 22.47531031 -21.1875 26.0625 C-20.59001953 26.63033203 -19.99253906 27.19816406 -19.37695312 27.78320312 C-17.90962991 29.18009483 -16.4536658 30.58890128 -15 32 C-15.21205078 31.43490723 -15.42410156 30.86981445 -15.64257812 30.28759766 C-16.59842491 27.73464642 -17.54926887 25.17986049 -18.5 22.625 C-18.83386719 21.73554687 -19.16773438 20.84609375 -19.51171875 19.9296875 C-19.82753906 19.07890625 -20.14335937 18.228125 -20.46875 17.3515625 C-20.76201172 16.56604004 -21.05527344 15.78051758 -21.35742188 14.97119141 C-22 13 -22 13 -22 11 C-19.75 9.25 -19.75 9.25 -17 8 C-13.98809907 9.1191967 -11.99486162 10.76524114 -9.765625 13.0390625 C-9.19199219 13.61914062 -8.61835938 14.19921875 -8.02734375 14.796875 C-7.44082031 15.40015625 -6.85429687 16.0034375 -6.25 16.625 C-5.64800781 17.23601562 -5.04601562 17.84703125 -4.42578125 18.4765625 C-2.94594695 19.97988624 -1.47235324 21.48934856 0 23 C-0.28049194 22.16021606 -0.28049194 22.16021606 -0.56665039 21.3034668 C-1.40785021 18.76777132 -2.23529926 16.22779494 -3.0625 13.6875 C-3.35705078 12.80642578 -3.65160156 11.92535156 -3.95507812 11.01757812 C-4.22900391 10.17001953 -4.50292969 9.32246094 -4.78515625 8.44921875 C-5.04176025 7.66893311 -5.29836426 6.88864746 -5.56274414 6.0847168 C-6 4 -6 4 -5 1 C-3 0 -3 0 0 0 Z " fill="#232327" transform="translate(160,66)"/>
<path d="M0 0 C2.97717008 1.98478006 4.62826444 3.36831119 5.44140625 6.9375 C5.67247694 10.87315569 5.23467103 12.64799345 3 16 C2.34 16.66 1.68 17.32 1 18 C1.55429688 18.44730469 2.10859375 18.89460938 2.6796875 19.35546875 C9.87521968 25.3602812 9.87521968 25.3602812 11 30 C8.28125 30.27734375 8.28125 30.27734375 5 30 C2.65625 28.06640625 2.65625 28.06640625 0.5 25.5625 C-2.85962952 21.67336365 -4.82835723 20.40867867 -10 20 C-9.7834375 20.67546875 -9.566875 21.3509375 -9.34375 22.046875 C-9.0653125 22.93890625 -8.786875 23.8309375 -8.5 24.75 C-8.2215625 25.63171875 -7.943125 26.5134375 -7.65625 27.421875 C-7 30 -7 30 -7 34 C-9.475 34.495 -9.475 34.495 -12 35 C-13.28734407 31.06911162 -14.56892842 27.13639726 -15.84521484 23.2019043 C-16.28015954 21.86382499 -16.71667209 20.52625426 -17.15478516 19.18920898 C-17.78440139 17.26680931 -18.40790843 15.34241216 -19.03125 13.41796875 C-19.40830078 12.26063232 -19.78535156 11.1032959 -20.17382812 9.91088867 C-21 7 -21 7 -21 4 C-6.31396357 -1.01474415 -6.31396357 -1.01474415 0 0 Z " fill="#232326" transform="translate(214,47)"/>
<path d="M0 0 C2.02389637 1.82772675 2.28298858 2.81733626 2.65234375 5.4921875 C2.04736328 7.3515625 2.04736328 7.3515625 1.03515625 9.2421875 C0.67550781 9.933125 0.31585938 10.6240625 -0.0546875 11.3359375 C-0.44011719 12.0475 -0.82554687 12.7590625 -1.22265625 13.4921875 C-1.97361736 14.90696748 -2.72113452 16.323582 -3.46484375 17.7421875 C-3.80112793 18.36609375 -4.13741211 18.99 -4.48388672 19.6328125 C-5.38181633 21.56572146 -5.89750449 23.41332575 -6.34765625 25.4921875 C-5.28804688 24.9146875 -4.2284375 24.3371875 -3.13671875 23.7421875 C-1.74881567 22.99196962 -0.36078838 22.24198149 1.02734375 21.4921875 C1.72601563 21.110625 2.4246875 20.7290625 3.14453125 20.3359375 C8.42578125 17.4921875 8.42578125 17.4921875 10.65234375 17.4921875 C11.31234375 19.4721875 11.97234375 21.4521875 12.65234375 23.4921875 C9.00833802 25.35127319 5.3604348 27.20244741 1.70874023 29.04638672 C0.46708333 29.67475757 -0.77348795 30.30527842 -2.01293945 30.93798828 C-3.79481622 31.84712364 -5.58095139 32.74789741 -7.3671875 33.6484375 C-8.44073486 34.19306641 -9.51428223 34.73769531 -10.62036133 35.29882812 C-13.34765625 36.4921875 -13.34765625 36.4921875 -16.34765625 36.4921875 C-18.54910841 32.16623363 -18.54910841 32.16623363 -17.65673828 29.18041992 C-17.22731934 28.41060791 -16.79790039 27.6407959 -16.35546875 26.84765625 C-15.66904297 25.58598633 -15.66904297 25.58598633 -14.96875 24.29882812 C-14.47503906 23.43451172 -13.98132813 22.57019531 -13.47265625 21.6796875 C-12.98667969 20.79603516 -12.50070312 19.91238281 -12 19.00195312 C-10.79838733 16.82255759 -9.5808063 14.65384564 -8.34765625 12.4921875 C-12.62620259 13.91836961 -16.01880803 16.50100797 -19.75390625 18.99609375 C-22.34765625 20.4921875 -22.34765625 20.4921875 -25.34765625 20.4921875 C-26.00765625 19.1721875 -26.66765625 17.8521875 -27.34765625 16.4921875 C-21.30772047 11.96839887 -15.17155493 7.57914604 -8.91015625 3.3671875 C-8.31960449 2.95283447 -7.72905273 2.53848145 -7.12060547 2.11157227 C-2.95578468 -0.63935442 -2.95578468 -0.63935442 0 0 Z " fill="#232226" transform="translate(436.34765625,136.5078125)"/>
<path d="M0 0 C1.38232443 1.62626404 2.71937515 3.2925002 4 5 C2.47728017 9.11984605 0.49716827 12.88939364 -1.6875 16.6875 C-2.03619141 17.29674316 -2.38488281 17.90598633 -2.74414062 18.53369141 C-5.86213808 23.90561198 -9.31367227 29.00041802 -13 34 C-14.32 33.34 -15.64 32.68 -17 32 C-16 27 -16 27 -15.0625 24.625 C-14.97015824 20.74664594 -17.08662978 19.09651625 -19.65234375 16.35546875 C-20.09707031 15.90816406 -20.54179687 15.46085938 -21 15 C-22.258125 15.391875 -23.51625 15.78375 -24.8125 16.1875 C-27.01953125 16.74609375 -27.01953125 16.74609375 -29 17 C-31 15.75 -31 15.75 -32 14 C-32 13.34 -32 12.68 -32 12 C-3.92576419 0 -3.92576419 0 0 0 Z " fill="#232327" transform="translate(421,115)"/>
<path d="M0 0 C10.57051141 2.97295634 18.23863072 14.35781321 23.3515625 23.38671875 C27.17915741 31.52401021 29.509587 39.9972964 29 49 C24.76525603 44.86908513 21.04702403 40.500029 17.33984375 35.8984375 C15.85132795 34.0545665 14.34526412 32.22462406 12.81640625 30.4140625 C5.28108841 21.38307666 0 11.99506847 0 0 Z " fill="#F7F7F5" transform="translate(273,247)"/>
<path d="M0 0 C1.16949949 10.05769565 -4.20482244 19.7498648 -10.04296875 27.59765625 C-12.85308897 31.04720503 -15.8258761 34.32919435 -18.84765625 37.59375 C-21.41118339 40.4596896 -23.67889044 43.47088489 -25.90625 46.6015625 C-26.2671875 47.06304687 -26.628125 47.52453125 -27 48 C-27.33 48 -27.66 48 -28 48 C-28.91604828 34.84452884 -24.30250334 22.52316425 -15.67089844 12.44873047 C-4.16948216 0 -4.16948216 0 0 0 Z " fill="#F8F8F6" transform="translate(239,247)"/>
<path d="M0 0 C2.85546875 0.51171875 2.85546875 0.51171875 6 2 C7.11917071 4.76266524 7.77232922 6.93756263 8.3125 9.8125 C8.46783203 10.52470703 8.62316406 11.23691406 8.78320312 11.97070312 C9.21520293 13.97495973 9.60871652 15.9873983 10 18 C10.19980469 18.99386719 10.39960938 19.98773438 10.60546875 21.01171875 C10.73566406 21.66785156 10.86585938 22.32398437 11 23 C11.38091797 22.03900391 11.38091797 22.03900391 11.76953125 21.05859375 C13.77932166 16.00777217 15.83252429 10.98519412 18 6 C20.475 6.495 20.475 6.495 23 7 C21.6576219 13.80876316 19.68233729 20.05436921 17.125 26.5 C16.78597656 27.40492187 16.44695312 28.30984375 16.09765625 29.2421875 C15.58912109 30.52996094 15.58912109 30.52996094 15.0703125 31.84375 C14.76883301 32.61912109 14.46735352 33.39449219 14.15673828 34.19335938 C13 36 13 36 10.99560547 36.82226562 C9 37 9 37 7 36 C6.42163086 33.97460938 6.42163086 33.97460938 5.96484375 31.34375 C5.79533203 30.40402344 5.62582031 29.46429688 5.45117188 28.49609375 C5.28166016 27.50738281 5.11214844 26.51867187 4.9375 25.5 C4.5958122 23.55149038 4.25093215 21.60353693 3.90234375 19.65625 C3.75273193 18.78806641 3.60312012 17.91988281 3.44897461 17.02539062 C3.19347827 15.01437262 3.19347827 15.01437262 2 14 C0.35 19.94 -1.3 25.88 -3 32 C-4.65 31.67 -6.3 31.34 -8 31 C-6.92229013 23.84207622 -5.27012526 16.87044864 -3.4375 9.875 C-3.10455933 8.59435669 -3.10455933 8.59435669 -2.76489258 7.2878418 C-2.55243896 6.48902588 -2.33998535 5.69020996 -2.12109375 4.8671875 C-1.9295874 4.14644043 -1.73808105 3.42569336 -1.54077148 2.68310547 C-1 1 -1 1 0 0 Z " fill="#232328" transform="translate(312,48)"/>
<path d="M0 0 C3 1.5 3 1.5 6 3 C5.0852838 14.43395246 1.08438546 25.35452726 -3 36 C-4.65 35.34 -6.3 34.68 -8 34 C-7.67 31.03 -7.34 28.06 -7 25 C-10.3408626 22.23516739 -10.3408626 22.23516739 -14 20 C-16.72897167 20.49154083 -16.72897167 20.49154083 -19 22 C-22.68421053 23.15789474 -22.68421053 23.15789474 -25 22 C-23.43346758 17.81931662 -20.35018365 15.44092471 -17 12.6875 C-16.42419189 12.20692139 -15.84838379 11.72634277 -15.25512695 11.23120117 C-10.36779754 7.19883363 -5.28545011 3.49579432 0 0 Z " fill="#232326" transform="translate(378,78)"/>
<path d="M0 0 C2.8125 0.6875 2.8125 0.6875 4.8125 3.6875 C5.31494141 5.58178711 5.31494141 5.58178711 5.6640625 7.71484375 C5.79321045 8.50205811 5.9223584 9.28927246 6.05541992 10.1003418 C6.24454956 11.35004761 6.24454956 11.35004761 6.4375 12.625 C6.56938721 13.47296143 6.70127441 14.32092285 6.8371582 15.19458008 C7.7956358 21.71929084 8.16795709 28.09179618 7.8125 34.6875 C6.1625 34.3575 4.5125 34.0275 2.8125 33.6875 C2.4825 31.3775 2.1525 29.0675 1.8125 26.6875 C-4.1275 25.6975 -4.1275 25.6975 -10.1875 24.6875 C-10.5175 26.3375 -10.8475 27.9875 -11.1875 29.6875 C-12.1875 30.6875 -12.1875 30.6875 -14.75 30.75 C-15.554375 30.729375 -16.35875 30.70875 -17.1875 30.6875 C-16.13971336 22.87532606 -11.65970198 15.65959849 -8.1875 8.6875 C-7.71570313 7.73359375 -7.24390625 6.7796875 -6.7578125 5.796875 C-4.85313471 2.3360879 -3.95602488 0.85326027 0 0 Z " fill="#232327" transform="translate(292.1875,43.3125)"/>
<path d="M0 0 C1.99954746 -0.04254356 4.00041636 -0.04080783 6 0 C7 1 7 1 7.09765625 3.72265625 C7.06510417 6.81510417 7.03255208 9.90755208 7 13 C10.96 13 14.92 13 19 13 C19 9.04 19 5.08 19 1 C20.98 1 22.96 1 25 1 C24.86117146 5.58357376 24.71273252 10.16678696 24.5625 14.75 C24.52318359 16.05195312 24.48386719 17.35390625 24.44335938 18.6953125 C24.40146484 19.94570313 24.35957031 21.19609375 24.31640625 22.484375 C24.27974854 23.63647461 24.24309082 24.78857422 24.20532227 25.97558594 C24.03547826 28.47740224 23.72031525 30.61091168 23 33 C21.35 33 19.7 33 18 33 C18 28.38 18 23.76 18 19 C14.37 19 10.74 19 7 19 C7 23.62 7 28.24 7 33 C5.35 33 3.7 33 2 33 C0.5235764 30.0471528 0.77727061 27.31551017 0.68359375 24.0234375 C0.66281265 23.33819 0.64203156 22.6529425 0.62062073 21.94692993 C0.55519815 19.75638931 0.49627446 17.56572811 0.4375 15.375 C0.39430782 13.8906125 0.3506933 12.40623722 0.30664062 10.921875 C0.19952447 7.28137916 0.09823638 3.64074749 0 0 Z " fill="#23272D" transform="translate(248,41)"/>
<path d="M0 0 C4.14754958 1.77307745 7.48470035 4.54364996 11 7.3125 C11.92425781 8.0230957 11.92425781 8.0230957 12.8671875 8.74804688 C21.5908025 15.59028139 21.5908025 15.59028139 22.5625 21.3125 C21.84351214 26.02586486 20.00043079 29.3234158 17 33 C13.25958099 35.49361267 10.33129216 35.66820692 6 35 C3.05308888 33.86418257 0.43773122 32.33539604 -2.25 30.6875 C-2.94351563 30.28337891 -3.63703125 29.87925781 -4.3515625 29.46289062 C-7.71446057 27.48187308 -10.94159611 25.43568764 -14 23 C-13.67 21.35 -13.34 19.7 -13 18 C-10 17 -10 17 -8.1940918 17.89624023 C-7.20662964 18.59535522 -7.20662964 18.59535522 -6.19921875 19.30859375 C-5.46896484 19.80810547 -4.73871094 20.30761719 -3.98632812 20.82226562 C-2.46345627 21.89228689 -0.94259125 22.96517048 0.57617188 24.04101562 C3.97067529 26.35666896 6.30848538 27.89172857 10.41796875 28.53515625 C13.34463749 28.24371632 13.34463749 28.24371632 15 25 C15.44792986 22.5132518 15.44792986 22.5132518 15 20 C13.62843308 18.16523156 13.62843308 18.16523156 11.625 16.6875 C10.90570313 16.10226563 10.18640625 15.51703125 9.4453125 14.9140625 C8.63835937 14.28242188 7.83140625 13.65078125 7 13 C6.08992188 12.26523438 5.17984375 11.53046875 4.2421875 10.7734375 C1.83849453 8.83541724 -0.57593219 6.91243055 -3 5 C-2.01 3.35 -1.02 1.7 0 0 Z " fill="#232326" transform="translate(91,121)"/>
<path d="M0 0 C0.9831543 1.83837891 0.9831543 1.83837891 1.82421875 4.2265625 C2.13037109 5.09410156 2.43652344 5.96164063 2.75195312 6.85546875 C3.06068359 7.76941406 3.36941406 8.68335938 3.6875 9.625 C4.16799805 10.96111328 4.16799805 10.96111328 4.65820312 12.32421875 C6.38660647 17.32884933 7.61555245 21.6378542 7 27 C5.21586966 30.54005308 2.78895325 32.73701558 -1 34 C-8.01094963 34.56539916 -8.01094963 34.56539916 -11.42578125 32.61328125 C-15.11383102 28.86926715 -17.06406713 24.58505048 -19.3125 19.875 C-19.76689453 18.95589844 -20.22128906 18.03679687 -20.68945312 17.08984375 C-24 10.30944549 -24 10.30944549 -24 8 C-22.35 7.34 -20.7 6.68 -19 6 C-18.46890625 7.08539063 -17.9378125 8.17078125 -17.390625 9.2890625 C-16.6773009 10.73448239 -15.96374699 12.17978889 -15.25 13.625 C-14.90195313 14.33785156 -14.55390625 15.05070312 -14.1953125 15.78515625 C-12.06281642 20.08963907 -9.7561525 24.06441288 -7 28 C-3.535 27.505 -3.535 27.505 0 27 C-0.04514859 17.60909411 -3.52715351 9.55998248 -7 1 C-3.375 -1.125 -3.375 -1.125 0 0 Z " fill="#232327" transform="translate(187,55)"/>
<path d="M0 0 C0.94746094 0.00128906 1.89492188 0.00257813 2.87109375 0.00390625 C5.95200991 0.50025123 7.33413625 1.28020025 9.5625 3.4375 C10.59950136 6.54850409 10.73133434 8.98673723 10.875 12.25 C11.24250788 17.43343144 11.24250788 17.43343144 13.6875 21.875 C15.5625 24.4375 15.5625 24.4375 15.3828125 26.83984375 C13.6943266 32.18671576 9.28045014 36.05475964 5 39.5 C1.55427974 40.82527702 0.07120816 40.67586758 -3.4375 39.4375 C-7.66457818 36.35960848 -11.62772196 32.88412694 -14.4375 28.4375 C-14.30296675 24.73783559 -13.94558042 22.23553208 -11.9453125 19.09375 C-9.78337652 15.28515811 -9.58247743 11.57257401 -9.0625 7.27734375 C-7.80774943 1.57607084 -5.81270956 -0.11830481 0 0 Z M-5.4375 6.4375 C-6.41515191 9.5511412 -6.41515191 9.5511412 -7.0625 13 C-8.36892857 19.30035714 -8.36892857 19.30035714 -9.4375 21.4375 C-9.87946991 25.32683523 -9.59345304 27.15344267 -7.6875 30.625 C-4.99411271 34.076979 -4.99411271 34.076979 -1.4375 36.4375 C1.54462014 36.83183024 1.54462014 36.83183024 4.5625 35.4375 C7.14727109 33.05997113 9.03560078 30.60357044 10.5625 27.4375 C10.50486239 23.86396819 10.14741397 21.60732793 8.5625 18.4375 C8.43463347 16.64736864 8.33410886 14.85522023 8.25 13.0625 C7.94591024 9.54703802 7.77135826 7.77012613 5.875 4.75 C1.48303775 2.25726467 -2.34674669 2.33352453 -5.4375 6.4375 Z " fill="#322E2F" transform="translate(255.4375,353.5625)"/>
<path d="M0 0 C1.97694357 0.85783882 3.95987865 1.70024796 5.94433594 2.54052734 C7.61203105 3.25351436 9.26760563 3.99467494 10.921875 4.73828125 C15.59002248 6.65174779 20.20250531 8.09894853 25.25 8.4375 C29.10690208 9.01603531 29.62632745 9.25269381 32 12 C16.07052702 13.89469502 -0.00375903 4.97414844 -14.20092773 -1.24731445 C-17.55634572 -2.65113501 -20.18388652 -3.12802111 -23.7890625 -3.1328125 C-24.73136719 -3.13410156 -25.67367187 -3.13539063 -26.64453125 -3.13671875 C-28.11986328 -3.13091797 -28.11986328 -3.13091797 -29.625 -3.125 C-30.58535156 -3.12886719 -31.54570312 -3.13273437 -32.53515625 -3.13671875 C-42.10252297 -3.12373725 -50.28297618 -2.22537329 -59.3125 1 C-60.87067671 1.54286518 -62.42925702 2.08457359 -63.98828125 2.625 C-64.66415283 2.86476563 -65.34002441 3.10453125 -66.03637695 3.3515625 C-68.0073682 4.00243316 -69.98078531 4.52203934 -72 5 C-71.859375 3.16015625 -71.859375 3.16015625 -71 1 C-66.9139259 -1.26789962 -62.43679039 -2.5641455 -58 -4 C-56.59427734 -4.48726563 -56.59427734 -4.48726563 -55.16015625 -4.984375 C-36.50011492 -10.41088908 -17.33536919 -8.02819846 0 0 Z " fill="#383435" transform="translate(334,428)"/>
<path d="M0 0 C2.475 0.99 2.475 0.99 5 2 C4.505 2.9075 4.01 3.815 3.5 4.75 C1.72062788 8.00873038 1.72062788 8.00873038 2 12 C2.60062256 12.28198242 3.20124512 12.56396484 3.82006836 12.85449219 C6.53310658 14.1383289 9.23517086 15.44378252 11.9375 16.75 C12.88302734 17.1934375 13.82855469 17.636875 14.80273438 18.09375 C15.70185547 18.53203125 16.60097656 18.9703125 17.52734375 19.421875 C18.35999756 19.81987305 19.19265137 20.21787109 20.05053711 20.62792969 C22 22 22 22 22.84204102 23.97363281 C23 26 23 26 22 29 C16.00277354 27.1855525 10.54342601 24.47466406 4.92578125 21.74609375 C4.19230469 21.39417969 3.45882812 21.04226562 2.703125 20.6796875 C2.03958008 20.35726074 1.37603516 20.03483398 0.69238281 19.70263672 C-1.00244734 18.872186 -1.00244734 18.872186 -3 19 C-4.32 21.64 -5.64 24.28 -7 27 C-8.65 26.67 -10.3 26.34 -12 26 C-10.08321013 19.56404235 -7.54251139 13.81539951 -4.3125 7.9375 C-3.89677734 7.16728516 -3.48105469 6.39707031 -3.05273438 5.60351562 C-2.0415352 3.732216 -1.02168617 1.86559466 0 0 Z " fill="#232428" transform="translate(73,148)"/>
<path d="M0 0 C2.5 0.9375 2.5 0.9375 5 3 C6.13151572 8.50378037 4.77290825 13.792082 3 19 C4.175625 18.525625 5.35125 18.05125 6.5625 17.5625 C10.39479366 16.15167331 13.87496672 15.07932756 18 15 C20.4375 16.8125 20.4375 16.8125 22 19 C22 19.66 22 20.32 22 21 C20.60587891 21.29003906 20.60587891 21.29003906 19.18359375 21.5859375 C16.63682279 22.12237935 14.09259607 22.67101403 11.55078125 23.23046875 C9.08555236 23.76473728 6.60867122 24.24684865 4.125 24.6875 C0.02417426 26.40984681 -2.23304661 29.07753486 -5.10546875 32.41796875 C-6.04326172 33.20107422 -6.04326172 33.20107422 -7 34 C-9.23828125 33.73828125 -9.23828125 33.73828125 -11 33 C-11 29 -11 29 -9.53466797 27.44067383 C-8.90189941 26.93044678 -8.26913086 26.42021973 -7.6171875 25.89453125 C-3.13336344 21.66256935 -2.66230099 17.64547473 -2.125 11.6875 C-1.92138408 9.89949766 -1.71575484 8.11172309 -1.5078125 6.32421875 C-1.43191895 5.54135498 -1.35602539 4.75849121 -1.27783203 3.9519043 C-1 2 -1 2 0 0 Z " fill="#232529" transform="translate(392,88)"/>
<path d="M0 0 C1.32 0.66 2.64 1.32 4 2 C2.70700306 4.88437779 1.34058637 6.87219421 -1 9 C0.39347376 12.15204981 2.02485079 14.26171773 4.4765625 16.671875 C5.146875 17.33574219 5.8171875 17.99960938 6.5078125 18.68359375 C7.20648438 19.36550781 7.90515625 20.04742187 8.625 20.75 C9.33140625 21.44738281 10.0378125 22.14476563 10.765625 22.86328125 C12.50598703 24.58012488 14.25084981 26.29211832 16 28 C15.34 29.32 14.68 30.64 14 32 C9.34256259 30.58325675 6.56949302 27.89833204 3.3125 24.4375 C0.00909992 20.76944638 0.00909992 20.76944638 -4 18 C-4 17.34 -4 16.68 -4 16 C-6.94166258 16.42023751 -7.91209677 16.90660282 -10 19.125 C-10.66 19.74375 -11.32 20.3625 -12 21 C-14.25 20.75 -14.25 20.75 -16 20 C-16 15.7742937 -13.58228496 14.01922973 -10.8125 11.125 C-10.08836914 10.34962891 -10.08836914 10.34962891 -9.34960938 9.55859375 C-6.29791944 6.30618864 -3.16791152 3.13895438 0 0 Z " fill="#232225" transform="translate(112,98)"/>
<path d="M0 0 C4.40512615 0.77126788 7.01342696 1.48638466 10 5 C10.78158127 10.15640632 9.16164324 14.3189348 6.3125 18.5625 C4.08637642 21.23597856 3.42167916 21.90533733 -0.0625 22.6875 C-3.20981155 21.95089517 -5.36848905 20.85753714 -8 19 C-6.60121198 14.53202662 -4.86369228 10.36177921 -2.875 6.125 C-2.33617187 4.97257812 -1.79734375 3.82015625 -1.2421875 2.6328125 C-0.62730469 1.32957031 -0.62730469 1.32957031 0 0 Z " fill="#1E7ABB" transform="translate(345,66)"/>
<path d="M0 0 C0.33 1.98 0.66 3.96 1 6 C-2.62328107 7.59955903 -6.25278356 9.18393878 -9.88867188 10.75463867 C-11.7313311 11.55439725 -13.5688301 12.36601095 -15.40625 13.17773438 C-16.56640625 13.67724609 -17.7265625 14.17675781 -18.921875 14.69140625 C-19.99018555 15.15748291 -21.05849609 15.62355957 -22.15917969 16.10375977 C-25.04281378 17.01350717 -26.23833135 17.09825853 -29 16 C-29.33 14.68 -29.66 13.36 -30 12 C-15.0511826 4.44118769 -15.0511826 4.44118769 -7.6875 0.9375 C-6.84574219 0.53402344 -6.00398438 0.13054687 -5.13671875 -0.28515625 C-3 -1 -3 -1 0 0 Z " fill="#232327" transform="translate(454,168)"/>
<path d="M0 0 C1.98 0 3.96 0 6 0 C7.71515417 10.31249926 9.39507314 20.54936693 10 31 C8.34385343 31.38218767 6.67542976 31.71395102 5 32 C2.27594184 29.27594184 2.51800169 22.49448071 1.9375 18.8125 C1.75123047 17.67490234 1.56496094 16.53730469 1.37304688 15.36523438 C1.19708984 14.26115234 1.02113281 13.15707031 0.83984375 12.01953125 C0.59802368 10.50516479 0.59802368 10.50516479 0.35131836 8.96020508 C-0.0065847 5.94451741 -0.06069374 3.03384018 0 0 Z " fill="#23252A" transform="translate(224,44)"/>
<path d="M0 0 C0 0.66 0 1.32 0 2 C-0.65742188 2.268125 -1.31484375 2.53625 -1.9921875 2.8125 C-6.92793768 4.84565454 -11.83559157 6.91327988 -16.69921875 9.11328125 C-17.50311035 9.47615234 -18.30700195 9.83902344 -19.13525391 10.21289062 C-20.73997141 10.93987188 -22.34256193 11.6715685 -23.94287109 12.40820312 C-25.055896 12.9119043 -25.055896 12.9119043 -26.19140625 13.42578125 C-26.85342041 13.72911377 -27.51543457 14.03244629 -28.19750977 14.3449707 C-30 15 -30 15 -33 15 C-33 14.34 -33 13.68 -33 13 C-33.66 12.67 -34.32 12.34 -35 12 C-34.18660156 11.731875 -33.37320313 11.46375 -32.53515625 11.1875 C-24.61747264 8.47999064 -17.1402485 5.32374106 -9.68774414 1.50390625 C-5.97672384 -0.33738292 -3.96078573 -1.32244236 0 0 Z " fill="#373334" transform="translate(197,423)"/>
<path d="M0 0 C1 1 1 1 1.0625 4.0625 C1.041875 5.031875 1.02125 6.00125 1 7 C-4.445 8.485 -4.445 8.485 -10 10 C-12 5 -12 5 -12 1 C-8.00681626 -0.33106125 -4.16255487 -0.13647721 0 0 Z " fill="#1E78B6" transform="translate(212,53)"/>
<path d="M0 0 C0.33 0.66 0.66 1.32 1 2 C-0.21484375 4.3828125 -0.21484375 4.3828125 -1.9375 7.125 C-2.50339844 8.03507813 -3.06929688 8.94515625 -3.65234375 9.8828125 C-4.09707031 10.58148438 -4.54179687 11.28015625 -5 12 C-7.5 9.6875 -7.5 9.6875 -10 7 C-10 6.01 -10 5.02 -10 4 C-6.7 2.68 -3.4 1.36 0 0 Z " fill="#1F74B0" transform="translate(416,122)"/>
<path d="M0 0 C0.66 0 1.32 0 2 0 C3.3271261 3.9813783 3.06915913 7.85045227 3 12 C0.36 11.67 -2.28 11.34 -5 11 C-3.35 7.37 -1.7 3.74 0 0 Z " fill="#1F72AC" transform="translate(290,52)"/>
<path d="M0 0 C-0.28241641 1.46015291 -0.57626614 2.91809793 -0.875 4.375 C-1.03742188 5.18710938 -1.19984375 5.99921875 -1.3671875 6.8359375 C-2 9 -2 9 -4 11 C-5.98 9.68 -7.96 8.36 -10 7 C-3.18421053 0 -3.18421053 0 0 0 Z " fill="#1F78B6" transform="translate(377,87)"/>
<path d="M0 0 C-2.17424117 2.50037734 -3.73045798 3.43628586 -7 4 C-7.33 3.34 -7.66 2.68 -8 2 C-6.14210462 -1.71579076 -3.44525918 -1.06921837 0 0 Z " fill="#3E3A3B" transform="translate(280,425)"/>
</svg>
